# xmcd
#
# Track frame offsets:
#	150
#	41001
#	63336
#	92010
#	133194
#	162973
#
# Disc length: 2565 seconds
#
# Revision: 0
# Processed by: cddbd v1.5.2PL0 Copyright (c) Steve Scherf et al.
# Submitted via: EZCDAudioConverter 7.0.6.1
#
DISCID=4c0a0306
DTITLE=Grateful Dead - Robert F. Kennedy Stadium, Washington D.C. - July 12th 
DTITLE=1989 [CD 3]
DYEAR=1989
DGENRE=Psychedelic Rock
TTITLE0=Space ->
TTITLE1=I Need a Miracle ->
TTITLE2=Dear Mr. Fantasy ->
TTITLE3=Black Peter ->
TTITLE4=Turn your Lovelight
TTITLE5=Black Muddy River
EXTD=
EXTT0=
EXTT1=
EXTT2=
EXTT3=
EXTT4=
EXTT5=
PLAYORDER=
